<svg xmlns="http://www.w3.org/2000/svg" xmlns:xlink="http://www.w3.org/1999/xlink" width="222" height="72" viewBox="0 0 222 72">
  <defs>
    <filter id="Path_3" x="23.813" y="0.87" width="48.918" height="71.13" filterUnits="userSpaceOnUse">
      <feOffset dy="3" input="SourceAlpha"/>
      <feGaussianBlur stdDeviation="5" result="blur"/>
      <feFlood flood-opacity="0.2"/>
      <feComposite operator="in" in2="blur"/>
      <feComposite in="SourceGraphic"/>
    </filter>
    <filter id="Path_4" x="8.55" y="0.87" width="43.955" height="61.22" filterUnits="userSpaceOnUse">
      <feOffset dy="3" input="SourceAlpha"/>
      <feGaussianBlur stdDeviation="5" result="blur-2"/>
      <feFlood flood-opacity="0.2"/>
      <feComposite operator="in" in2="blur-2"/>
      <feComposite in="SourceGraphic"/>
    </filter>
    <filter id="Path_5" x="0" y="23.857" width="37.311" height="48.085" filterUnits="userSpaceOnUse">
      <feOffset dy="3" input="SourceAlpha"/>
      <feGaussianBlur stdDeviation="5" result="blur-3"/>
      <feFlood flood-opacity="0.2"/>
      <feComposite operator="in" in2="blur-3"/>
      <feComposite in="SourceGraphic"/>
    </filter>
    <filter id="Path_6" x="0" y="0" width="37.311" height="50.779" filterUnits="userSpaceOnUse">
      <feOffset dy="3" input="SourceAlpha"/>
      <feGaussianBlur stdDeviation="5" result="blur-4"/>
      <feFlood flood-opacity="0.2"/>
      <feComposite operator="in" in2="blur-4"/>
      <feComposite in="SourceGraphic"/>
    </filter>
  </defs>
  <g id="Group_39238" data-name="Group 39238" transform="translate(15 12)">
    <g id="Group_39234" data-name="Group 39234" transform="translate(0 0)">
      <g id="Group_10" data-name="Group 10">
        <g id="Group_9" data-name="Group 9" transform="translate(0)">
          <g transform="matrix(1, 0, 0, 1, -15, -12)" filter="url(#Path_3)">
            <path id="Path_3-2" data-name="Path 3" d="M904.679-636.609l7.123-5.438v-35.691l-6.957,2.5L892.884-666.7v9.843l11.961-9.843Z" transform="translate(-854.07 690.61)" fill="#fff"/>
          </g>
          <g transform="matrix(1, 0, 0, 1, -15, -12)" filter="url(#Path_4)">
            <path id="Path_4-2" data-name="Path 4" d="M853.219-677.739l13.955,10.972v9.906l-13.955,10.342v-8.535l7.476-5.669v-2.367l-7.476-5.856Z" transform="translate(-829.67 690.61)" fill="#fff"/>
          </g>
          <g transform="matrix(1, 0, 0, 1, -15, -12)" filter="url(#Path_5)">
            <path id="Path_5-2" data-name="Path 5" d="M0-9.843,7.311-16V-3.687L0,2.085Z" transform="translate(15 51.86)" fill="#fff"/>
          </g>
          <g transform="matrix(1, 0, 0, 1, -15, -12)" filter="url(#Path_6)">
            <path id="Path_6-2" data-name="Path 6" d="M0-12.922,7.311-16V.931L0,4.779Z" transform="translate(15 28)" fill="#fff"/>
          </g>
        </g>
      </g>
      <g id="Group_11" data-name="Group 11" transform="translate(56 1.006)">
        <text id="Paymac.Net" transform="translate(0 22.351)" fill="#fff" font-size="25" font-family="KlavikaBold-Bold, Klavika" font-weight="700" letter-spacing="0.1em"><tspan x="0" y="0">Paymac.Net</tspan></text>
        <text id="FULL_DIGITAL_SOLUTION_COMPANY" data-name="FULL DIGITAL SOLUTION COMPANY" transform="translate(0.537 37.159)" fill="#fff" font-size="9" font-family="KlavikaBold-Bold, Klavika" font-weight="700" letter-spacing="0.052em"><tspan x="0" y="0">FULL DIGITAL SOLUTION COMPANY</tspan></text>
      </g>
    </g>
  </g>
</svg>
