<svg xmlns="http://www.w3.org/2000/svg" xmlns:xlink="http://www.w3.org/1999/xlink" width="1366" height="370" viewBox="0 0 1366 370">
  <defs>
    <clipPath id="clip-wave">
      <rect width="1366" height="370"/>
    </clipPath>
  </defs>
  <g id="wave" clip-path="url(#clip-wave)">
    <rect width="1366" height="370" fill="rgba(255,255,255,0)"/>
    <path id="Exclusion_4" data-name="Exclusion 4" d="M1366,768H0V573.431a105.259,105.259,0,0,0,13.254,13.046c3.8,3.237,7.891,6.417,12.151,9.451,5,3.561,10.26,6.937,15.635,10.034a192.212,192.212,0,0,0,41.123,17.713,186.8,186.8,0,0,0,53.265,7.729c49.917,0,101.464-19.505,153.207-57.973a396.675,396.675,0,0,1,43.659-28.46c6.74-3.743,13.5-7.174,20.1-10.2,6.378-2.924,12.794-5.556,19.068-7.823a196.16,196.16,0,0,1,67.673-12.183,233.7,233.7,0,0,1,38.533,3.417c11.927,1.981,23.378,4.577,36.039,7.518l1.743.4c11.722,2.725,22.79,5.3,34.214,7.263,6.143,1.057,11.783,1.833,17.242,2.37,6.117.6,11.864.9,17.571.9a148.5,148.5,0,0,0,45.035-6.852c23.22-7.27,43.074-14.419,60.7-21.856,15.343-6.474,26.89-12.276,37.078-17.4,11.654-5.856,21.719-10.913,34.554-15.647,14.06-5.186,30.077-9.419,50.408-13.323a177.625,177.625,0,0,1,33.413-3.2c39.278,0,72.291,13.12,101.417,24.7l.014.006c10.011,3.979,19.467,7.737,28.589,10.733,10.238,3.363,18.606,5.288,26.334,6.059,10.922,1.09,21.413,1.642,31.18,1.642,7.986,0,15.733-.369,23.025-1.1a185.275,185.275,0,0,0,20.141-3.106,152.3,152.3,0,0,0,33.315-11.123,176.94,176.94,0,0,0,26.838-15.808c8.242-5.8,16.118-12.135,23.734-18.259,10.651-8.564,21.665-17.419,34.135-25.238a175.741,175.741,0,0,1,20.087-10.907,166.961,166.961,0,0,1,23.606-8.769,225.137,225.137,0,0,1,29.47-6.511,173.534,173.534,0,0,1,25.275-1.935,131.348,131.348,0,0,1,33.093,4.027,101.1,101.1,0,0,1,22.732,8.86,77.513,77.513,0,0,1,13.1,8.859,39.515,39.515,0,0,1,4.205,4.027L1366,10.853ZM0,571.8H0V0H1270.7L.015.014c0,1.02,0,19.524,0,50.179C.017,185.421.018,544.632,0,571.8Z" transform="translate(0 -398)" fill="#fafafb"/>
  </g>
</svg>
