<svg version="1.2" xmlns="http://www.w3.org/2000/svg" viewBox="0 0 1366 384" width="1366" height="384">
	<title>wave-svg</title>
	<style>
		.s0 { fill: #fafafb } 
	</style>
	<path id="Exclusion_4" class="s0" d="m1366 417h-1366v-104.6q1.5 1.8 3.1 3.5 1.6 1.7 3.2 3.3 1.7 1.7 3.4 3.2 1.8 1.6 3.6 3.1c3.8 3.2 7.8 6.4 12.1 9.4 5 3.6 10.3 7 15.6 10.1q4.9 2.8 9.9 5.3 5 2.5 10.2 4.7 5.1 2.2 10.4 4.2 5.3 1.9 10.7 3.5 6.4 1.9 13 3.3 6.6 1.5 13.3 2.5 6.7 0.9 13.4 1.4 6.8 0.5 13.5 0.5c49.9 0 101.5-19.5 153.2-58 9.6-7.1 19.1-13.7 28.4-19.7 8.9-5.7 17.8-11.1 26.4-15.8 8.3-4.5 16.6-8.6 24.7-12.2 7.7-3.4 15.5-6.5 23.1-9.1 7.2-2.5 14.5-4.6 21.7-6.4 6.8-1.6 13.7-3 20.6-4q4.7-0.7 9.5-1.3 4.7-0.5 9.5-0.8 4.8-0.4 9.6-0.5 4.8-0.2 9.6-0.2c16.8 0 32.8 1.4 48.2 2.8h0.5c15.9 1.4 30.8 2.7 46.5 2.7 22.8 0 42.7-2.9 62.6-9.1 56.2-17.6 80.8-38.6 102.5-57 21-17.9 39.1-33.3 80.3-41.2q4.1-0.8 8.2-1.4 4.2-0.6 8.4-1 4.2-0.4 8.4-0.6 4.2-0.2 8.4-0.2c39.2 0 72.3 13.1 101.4 24.7 10 3.9 19.5 7.7 28.6 10.7 10.2 3.4 18.6 5.3 26.3 6.1 8.2 0.8 16.2 1.2 23.8 1.2q3 0 6-0.1 3.1-0.1 6.1-0.3 3-0.2 6-0.4 3-0.3 6-0.7 2.6-0.3 5.3-0.8 2.6-0.4 5.2-0.9 2.7-0.6 5.3-1.2 2.6-0.6 5.2-1.3 4.5-1.3 9-2.9 4.5-1.6 8.8-3.4 4.4-1.9 8.6-4.1 4.2-2.2 8.2-4.7 1.9-1.1 3.7-2.3 1.9-1.2 3.7-2.5 1.8-1.2 3.6-2.5 1.7-1.4 3.5-2.7c4.3-3.4 8.6-7 13.1-11.2 8.5-7.7 16.4-16.1 24.1-24.2 11.1-11.6 22.5-23.7 35.4-33.9q2.5-1.9 5-3.7 2.5-1.9 5.1-3.6 2.6-1.7 5.3-3.3 2.7-1.7 5.4-3.1 3-1.6 6-3.1 3-1.4 6.1-2.6 3.1-1.3 6.2-2.4 3.2-1.1 6.4-2 3.6-1.1 7.3-2 3.6-0.9 7.3-1.8 3.7-0.8 7.4-1.5 3.7-0.7 7.5-1.2 3.1-0.5 6.2-0.8 3.2-0.4 6.4-0.6 3.1-0.3 6.3-0.4 3.2-0.1 6.3-0.2 4.2 0 8.4 0.3 4.2 0.2 8.3 0.7 4.1 0.5 8.3 1.3 4.1 0.7 8.1 1.8 3 0.7 5.9 1.7 2.9 0.9 5.8 2 2.8 1.1 5.6 2.4 2.8 1.3 5.5 2.7 1.7 1 3.4 2 1.7 1 3.3 2.1 1.7 1.1 3.2 2.3 1.6 1.2 3.2 2.5 0.5 0.5 1.1 0.9 0.5 0.5 1 1 0.6 0.5 1.1 1.1 0.5 0.5 1 1v-413.6zm-1366-106.5v-661.5h1270.7-1270.7c0 1.1 0 22.6 0 58 0 156.5 0 572.1 0 603.5z"/>
</svg>